<?xml version="1.0" encoding="UTF-8"?>
<svg width="206.67" height="193.33" version="1.1" viewBox="0 0 206.66667 193.33333" xml:space="preserve" xmlns="http://www.w3.org/2000/svg" xmlns:cc="http://creativecommons.org/ns#" xmlns:dc="http://purl.org/dc/elements/1.1/" xmlns:rdf="http://www.w3.org/1999/02/22-rdf-syntax-ns#" xmlns:xlink="http://www.w3.org/1999/xlink"><metadata><rdf:RDF><cc:Work rdf:about=""><dc:format>image/svg+xml</dc:format><dc:type rdf:resource="http://purl.org/dc/dcmitype/StillImage"/><dc:title/></cc:Work></rdf:RDF></metadata><defs><linearGradient id="a" x1="41.315" x2="128.77" y1="194.14" y2="59.748" gradientUnits="userSpaceOnUse"><stop stop-color="#e74246" offset="0"/><stop stop-color="#fcc21d" offset="1"/></linearGradient></defs><g display="none" fill="#393536" fill-rule="evenodd"><path d="m105.71 59.395c-20.25 8.4009-36.829 14.074-48.812 27.507 4.3765 1.8751 10.396 3.0855 18.312 4.2328h-19.256l-2.4589-0.03173-0.02347 0.03173h-29.469-5.6005c-5.562 19.805-11.23 38.831-16.812 58.703l-1.5875 5.6547h5.6667c15.122 0 30.335 0.0281 45.615 0.0683 2.6313 17.569 2.7043 32.182-16.049 35.905 26.953 6.6042 65.97-4.651 88.493-28.316-2.1088-4.0901-8.0796-5.9037-17.617-7.4104 25.739 0.0875 51.59 0.16507 77.447 0.16507 12.605 0 20.759-6.1495 22.028-20.379 1.3813-15.533-13.943-19.327-24.241-12.577-0.43866 0.28693-0.86133 0.58853-1.2653 0.90307-1.2987-1.902-3.3813-3.0515-5.5773-3.6244-1.5027-0.39374-3.264-0.59014-5.28-0.59014-0.53334 0-1.0573 0.0125-1.5693 0.0369l3.1773-11.311h2.0267 5.5987l1.5733-5.5984 1.6787-5.9749 1.5893-5.6553h-5.6667-36.109c-0.176-2.4635-0.38-4.8676-0.60133-7.1833l-11.352-7.9161c0.1068 5.5839-0.21614 10.588-0.89894 15.099h-41.999c4.7323-8.6213 13.212-17.137 28.394-25.216z"/><path d="m103.68 53.328c16.285 11.423 29.914 20.981 44.59 31.275"/></g><g><path d="m105.71 59.395c-20.25 8.4009-36.829 14.074-48.812 27.507 4.3765 1.8751 10.396 3.0855 18.312 4.2328 7.8302 32.811 30.9 64.604-23.927 64.426 2.6313 17.569 2.7043 32.182-16.049 35.905 26.953 6.6042 65.97-4.651 88.493-28.316-2.1088-4.0901-8.0796-5.9037-17.617-7.4104-7.5001-32.911 12.232-56.489 35.41-64.604-0.176-2.4635-0.38-4.8676-0.60133-7.1833l-11.352-7.9161c0.1068 5.5839-0.21614 10.588-0.89894 15.099h-41.999c4.7323-8.6213 13.212-17.137 28.394-25.216z" fill="url(#a)" fill-rule="evenodd"/></g><g><path d="m18.4 91.135c-6.6287 23.518-12.536 43.47-18.4 64.357 183.56 0.41203 0 0 183.56 0.41203 12.605 0 20.759-6.1495 22.028-20.379 1.3813-15.533-13.943-19.327-24.241-12.577-0.43866 0.28693-0.86133 0.58853-1.2653 0.90307-1.2987-1.902-3.3813-3.0515-5.5773-3.6244-1.5027-0.39374-3.264-0.59014-5.28-0.59014-0.53334 0-1.0573 0.0125-1.5693 0.0369l3.1773-11.311h2.0267 5.5987l1.5733-5.5984 1.6787-5.9749 1.5893-5.6553-164.89 1e-5z" fill="#465d65" fill-rule="evenodd"/></g><g display="none"><g transform="translate(-109.27 -101.34)" display="none"><path d="m245.22 279.95c0.4117 2.9733 0.698 5.9126 0.7259 8.7411 19.047-1.2697 38.144 1.0819 55.054 5.4599 4.2709-3.9247 7.8145-8.6214 10.326-14.201h-66.106z" fill="#dc8824"/></g><g transform="translate(-109.27 -101.34)" display="none"><path d="m361.39 278.96c-2.3214 5.5495-8.0199 8.0278-15.044 8.0278-45.835 0-91.643-0.3153-136.43-0.3153h-4.3457l1.2181-4.3372c4.2808-15.24 8.6281-29.833 12.894-45.022l1.155-0.8853c39.164 0 77.3 0.8853 120.96 0.8853h4.346l-1.2184 4.3372-1.339 7.9908-1.1547 0.8853h-4.2946-1.5545l-2.4368 8.675 27.243 19.758z" fill="#1b1918" fill-rule="evenodd"/></g><g transform="matrix(1.304 0 0 1.304 -268.95 -217.06)" display="inline"><path d="m213.21 261.32c2.3945-8.2819 4.789-16.534 7.1584-24.971h4.2949 117.82 4.3461l-1.2184 4.3371-1.2876 4.583-1.2061 4.2931h-4.2946-1.5545l-2.4347 8.6671c-3.2948 0.2369-6.848 0.8072-8.8653 3.0906h-112.76z" fill="#465d65" fill-rule="evenodd"/></g></g><g fill="#fff" fill-rule="evenodd"><path d="m15.658 120.95h7.5083l2.7579-9.8172h0.6588c0.6812 0 1.2432 0.186 1.6729 0.55733 0.31973 0.28854 0.5948 0.91254 0.83493 1.8651l1.9151 7.3948h8.4484l-1.6448-7.012c-0.076-0.35573-0.2848-0.85093-0.626-1.5041-0.34213-0.64734-0.6224-1.0703-0.83693-1.2677-0.3276-0.2984-0.89227-0.5968-1.698-0.8952 1.1797-0.24693 2.1423-0.56933 2.8917-0.9516 1.1683-0.6084 2.1781-1.3975 3.026-2.3708 0.8432-0.97506 1.4547-2.1292 1.8328-3.4756 0.43173-1.5375 0.4276-2.8448-0.02133-3.9151-0.44693-1.0751-1.2265-1.8073-2.3375-2.2027-1.1052-0.39947-2.8188-0.59627-5.1281-0.59627h-12.459z"/><path d="m43.717 108.87c-0.7948 2.8281-0.89787 5.1823-0.31667 7.0641 0.58693 1.8807 1.6479 3.2552 3.1885 4.1285 1.5469 0.8672 3.6844 1.3011 6.4099 1.3011 2.6871 0 5.0641-0.5016 7.15-1.5104 2.0797-1.0073 3.8489-2.4156 5.3089-4.2235 1.4609-1.8088 2.5911-4.1291 3.3848-6.9563 1.0933-3.8927 0.85213-6.9219-0.71613-9.0796-1.5719-2.1625-4.3724-3.2443-8.4-3.2443-3.9249 0-7.2979 1.0973-10.119 3.3015-2.8131 2.1959-4.7813 5.2715-5.8907 9.2188z"/><path d="m14.009 125.68-6.7953 24.191h12.903c0.5516 0 1.6989-0.11253 3.4459-0.33227 1.312-0.16253 2.3328-0.4276 3.0588-0.78813 1.1797-0.58533 2.1948-1.3744 3.0625-2.3776 0.86147-1.002 1.4708-2.1285 1.8229-3.3853 0.43227-1.5375 0.38067-2.8151-0.15-3.8355-0.5376-1.0129-1.6125-1.7344-3.2308-2.1505 1.2537-0.39574 2.2735-0.9364 3.0625-1.6161 1.1781-1.0255 1.9672-2.2547 2.3683-3.6839 0.47813-1.7015 0.2552-3.1333-0.67093-4.2875-0.9208-1.1541-2.5479-1.7339-4.8807-1.7339h-13.996"/><path d="m176.23 141.86c-0.47733 2.4444-0.14667 4.4553 0.99733 6.0387 1.1347 1.5891 3.7653 2.3771 7.876 2.3771 2.344 0 4.3813-0.338 6.1093-1.0152 1.7333-0.67547 3.2107-1.6672 4.436-2.9791 1.224-1.3057 2.0587-2.7376 2.4947-4.2849 0.372-1.3245 0.38-2.5183 0.036-3.5828-0.34-1.0708-1.1213-1.9609-2.3333-2.6823-1.2107-0.7204-3.3467-1.4365-6.416-2.1396-1.2453-0.27613-1.9973-0.56933-2.2627-0.89013-0.272-0.30933-0.356-0.65413-0.24933-1.0355 0.14933-0.5296 0.49467-0.98066 1.0373-1.3479 0.544-0.37027 1.248-0.55054 2.1213-0.55054 1.0533 0 1.8107 0.24747 2.2693 0.73694 0.46533 0.49586 0.636 1.2901 0.516 2.3781l7.1627-0.4124c0.39467-2.5068-0.0547-4.3365-1.3547-5.4855-1.2987-1.1495-3.4987-1.724-6.5893-1.724-2.5187 0-4.5893 0.3156-6.2147 0.94694-1.6253 0.63533-2.9507 1.5036-3.9813 2.6077-1.032 1.1032-1.724 2.2813-2.0733 3.5261-0.53066 1.8916-0.264 3.4468 0.80134 4.6692 1.0533 1.2219 3.1173 2.1969 6.188 2.9344 1.8813 0.43854 3.024 0.90627 3.436 1.4027 0.41333 0.49573 0.524 1.0588 0.34933 1.6828-0.18533 0.65987-0.636 1.2401-1.352 1.7416-0.72 0.5016-1.6133 0.74947-2.676 0.74947-1.4307 0-2.4-0.4848-2.8893-1.4656-0.30267-0.60827-0.37067-1.4864-0.19867-2.6411z"/><path d="m153.36 96.762-1.6787 5.9755h7.62l-5.1147 18.216h7.4733l5.1173-18.216h7.6267l1.6787-5.9755z"/><path d="m130.64 96.762-6.7957 24.191h20.396l1.5387-5.4807h-12.904l1.3396-4.7647h11.631l1.3853-4.9348h-11.631l1.08-3.8469h12.539l1.4507-5.164z"/><path d="m102.53 96.762-6.7957 24.191h7.4744l1.66-5.9077 5-4.0443 2.3015 9.952h9.2089l-4.9767-15.067 11.379-9.1244h-9.9353l-10.408 9.1416 2.5667-9.1416z"/><path d="m88.3 111.07c-0.76307 1.5317-1.6193 2.6979-2.576 3.4979-0.95893 0.8052-2.1527 1.2047-3.5833 1.2047-1.4699 0-2.4745-0.4948-3.0104-1.4921-0.5308-0.9964-0.42667-2.8333 0.32853-5.5193 0.60787-2.1683 1.3996-3.7573 2.3657-4.7713 1.2839-1.362 2.776-2.0448 4.4645-2.0448 0.74947 0 1.3833 0.15267 1.9041 0.462 0.51613 0.30987 0.90573 0.7484 1.1615 1.3177 0.1584 0.3448 0.248 0.8844 0.27187 1.6224l7.0141-1.4699c-0.12813-2.5515-0.89227-4.4448-2.2912-5.6776-1.4005-1.2333-3.6213-1.8473-6.6688-1.8473-3.8911 0-7.2072 1.076-9.9411 3.2271-2.7317 2.1459-4.662 5.2271-5.7865 9.2317-0.84427 3.0016-0.92707 5.4636-0.2624 7.3901 0.66973 1.9255 1.7339 3.2729 3.1864 4.0375 1.448 0.762 3.4912 1.1448 6.1213 1.1448 2.162 0 4.0365-0.31094 5.6152-0.94067 1.5791-0.626 3.0171-1.5552 4.3099-2.7885 1.2916-1.2339 2.4151-2.7656 3.3708-4.6015z"/><path d="m151.83 141.86c-0.47867 2.4444-0.14933 4.4553 0.99467 6.0387 1.1373 1.5891 3.7667 2.3771 7.8773 2.3771 2.3427 0 4.3813-0.338 6.108-1.0152 1.7333-0.67547 3.212-1.6672 4.4373-2.9791 1.2227-1.3057 2.0587-2.7376 2.4947-4.2849 0.37067-1.3245 0.38-2.5183 0.036-3.5828-0.34-1.0708-1.1213-1.9609-2.3333-2.6823-1.212-0.7204-3.348-1.4365-6.416-2.1396-1.2467-0.27613-1.9973-0.56933-2.2627-0.89013-0.27333-0.30933-0.35733-0.65413-0.24933-1.0355 0.14933-0.5296 0.49466-0.98066 1.0373-1.3479 0.544-0.37027 1.248-0.55054 2.12-0.55054 1.0533 0 1.812 0.24747 2.272 0.73694 0.46267 0.49586 0.63467 1.2901 0.51467 2.3781l7.1613-0.4124c0.39467-2.5068-0.0547-4.3365-1.3533-5.4855-1.3-1.1495-3.4987-1.724-6.5907-1.724-2.5173 0-4.5893 0.3156-6.2133 0.94694-1.6267 0.63533-2.952 1.5036-3.9827 2.6077-1.032 1.1032-1.7227 2.2813-2.072 3.5261-0.532 1.8916-0.26533 3.4468 0.8 4.6692 1.0547 1.2219 3.1173 2.1969 6.1893 2.9344 1.8813 0.43854 3.0227 0.90627 3.436 1.4027 0.412 0.49573 0.524 1.0588 0.348 1.6828-0.184 0.65987-0.63466 1.2401-1.3507 1.7416-0.72 0.5016-1.612 0.74947-2.6773 0.74947-1.4307 0-2.3973-0.4848-2.8893-1.4656-0.30133-0.60827-0.36933-1.4864-0.19733-2.6411z"/><path d="m133.26 125.68-6.7967 24.191h20.395l1.54-5.4808h-12.904l1.3387-4.764h11.632l1.3853-4.9339h-11.631l1.0787-3.8479h12.539l1.452-5.1641z"/><path d="m105.17 125.68-6.7953 24.191h7.0287l3.7312-13.28 5.3308 13.28h7.0468l6.7953-24.191h-7.0463l-3.7595 13.383-5.3479-13.383z"/><path d="m92.262 125.68-6.7953 24.191h7.4912l6.7952-24.191z"/><path d="m61.709 141.86c-0.47813 2.4444-0.1484 4.4553 0.9964 6.0387 1.1369 1.5891 3.7645 2.3771 7.8771 2.3771 2.3432 0 4.3808-0.338 6.1079-1.0152 1.7339-0.67547 3.2124-1.6672 4.4369-2.9791 1.2229-1.3057 2.0588-2.7376 2.4932-4.2849 0.37133-1.3245 0.38133-2.5183 0.038-3.5828-0.34213-1.0708-1.1219-1.9609-2.3337-2.6823-1.2111-0.7204-3.3475-1.4365-6.4163-2.1396-1.2468-0.27613-1.9984-0.56933-2.2624-0.89013-0.27347-0.30933-0.35787-0.65413-0.24907-1.0355 0.14853-0.5296 0.4948-0.98066 1.0371-1.3479 0.54267-0.37027 1.2479-0.55054 2.1203-0.55054 1.0541 0 1.812 0.24747 2.2704 0.73694 0.46293 0.49586 0.6364 1.2901 0.51613 2.3781l7.1615-0.4124c0.39467-2.5068-0.0548-4.3365-1.3548-5.4855-1.2979-1.1495-3.4968-1.724-6.5885-1.724-2.5181 0-4.5896 0.3156-6.2145 0.94694-1.6271 0.63533-2.9527 1.5036-3.9823 2.6077-1.0313 1.1032-1.7224 2.2813-2.0724 3.5261-0.53173 1.8916-0.26413 3.4468 0.8 4.6692 1.0536 1.2219 3.1177 2.1969 6.1885 2.9344 1.8828 0.43854 3.024 0.90627 3.4369 1.4027 0.412 0.49573 0.524 1.0588 0.34893 1.6828-0.1848 0.65987-0.6364 1.2401-1.3509 1.7416-0.72093 0.5016-1.6141 0.74947-2.6776 0.74947-1.4308 0-2.3991-0.4848-2.8891-1.4656-0.30213-0.60827-0.37093-1.4864-0.19853-2.6411z"/><path d="m55.149 125.68-4.1484 14.768c-0.37707 1.3396-1.036 2.3823-1.9672 3.1077-0.93693 0.73294-2.0547 1.1-3.338 1.1-1.3011 0-2.2104-0.3724-2.7339-1.1167-0.51987-0.73747-0.59693-1.7687-0.22453-3.0911l4.1485-14.768h-7.4631l-4.0516 14.424c-0.33333 1.1891-0.48587 2.5516-0.45573 4.0896 0.01773 0.9572 0.286 1.8864 0.8104 2.7875 0.52507 0.90107 1.1849 1.6 1.9813 2.0907 0.7968 0.48906 1.8661 0.81666 3.2115 0.97906 1.3443 0.16987 2.6052 0.24854 3.7828 0.24854 2.0401 0 3.8552-0.27094 5.4588-0.80467 1.1573-0.3896 2.3407-1.0548 3.5593-2.0063 1.2199-0.95213 2.2324-2.0672 3.0333-3.3355 0.80107-1.2724 1.4057-2.6188 1.8073-4.0489l4.0511-14.424z"/></g><g display="none"><path d="m144.18 82.055 1.9255-4.6147 10.901-26.112 6.8371 5.4099 6.0094 4.7552 0.49244-7.6517 2.5344-39.328 0.36787-5.6904-5.4844 1.5658-40.076 11.455-8.1614 2.3318 6.9654 4.8464 6.9208 4.815-23.697 17.594-4.4679 3.3167" display="inline" fill="#465d65" fill-rule="evenodd"/></g><g><path d="m142.79 76.698-30.281-21.239 28.194-20.932-11.512-8.0106 40.076-11.454-2.5344 39.326-10.997-8.6998z" fill="#fff" fill-rule="evenodd" stroke="#465d65" stroke-width="4.5"/></g><g fill="#465d65" fill-rule="evenodd"><path d="m27.209 106.56 1.3813-4.9172h3.2833c1.3629 0 2.2344 0.20827 2.6099 0.63067 0.3792 0.4172 0.45987 1.0147 0.24013 1.7975-0.14893 0.52866-0.43853 0.9968-0.86147 1.4025-0.42973 0.4052-0.9068 0.65893-1.4313 0.75987-1.0411 0.21986-1.7296 0.32666-2.0676 0.32666z"/><path d="m51.187 108.9c0.6912-2.4615 1.6437-4.2297 2.8557-5.2943 1.2131-1.0708 2.5729-1.6 4.0765-1.6 1.5776 0 2.6751 0.52346 3.2991 1.5719 0.62133 1.0531 0.6172 2.7156-0.024 4.9968-0.75933 2.7027-1.7312 4.5781-2.9047 5.6261-1.1708 1.0416-2.5631 1.5651-4.1677 1.5651-1.5609 0-2.6495-0.53493-3.2573-1.5989-0.60573-1.0703-0.56453-2.8235 0.1224-5.2667z"/><path d="m16.216 144.67 1.3765-4.9h3.7964c1.3125 0 2.1636 0.2208 2.5645 0.6536 0.4032 0.43333 0.5 1.0079 0.3 1.724-0.21667 0.77186-0.65413 1.3848-1.3113 1.8411-0.65213 0.4568-1.6224 0.68134-2.912 0.68134z"/><path d="m18.885 135.17 1.2891-4.5907h3.3015c1.1324 0 1.8709 0.19906 2.2209 0.59746 0.34427 0.3948 0.41507 0.9468 0.2176 1.6516-0.2124 0.75414-0.6004 1.3337-1.1713 1.7389-0.57333 0.40053-1.4421 0.60266-2.6077 0.60266z"/></g></svg>
